<svg width="460" height="460" viewBox="0 0 460 460" fill="none" xmlns="http://www.w3.org/2000/svg">
<path d="M188.992 196.052L213.954 163.959C215.273 162.265 194.787 142.831 192.754 141.048C182.916 132.486 171.567 125.835 159.288 121.436C139.052 114.179 114.911 112.343 94.6388 120.527C52.5256 137.518 28.1349 186.496 33.6442 230.534C35.3599 243.418 39.7029 255.811 46.4041 266.947C53.1053 278.083 62.022 287.724 72.6016 295.273C91.123 308.437 113.475 315.112 136.181 314.262C158.54 313.37 178.972 302.512 195.143 287.517C211.885 272.041 223.671 253.107 236.472 234.51C253.678 209.549 271.953 181.129 297.591 163.852C306.292 157.969 316.616 153.957 327.117 154.492C342.754 155.294 357.891 166.652 367.501 178.49C376.051 188.737 380.699 201.678 380.623 215.023C380.231 229.286 373.206 244.228 363.864 254.836C355.555 264.268 343.984 271.114 331.485 272.416C318.06 273.807 304.598 268.85 293.419 261.237C282.24 253.624 273.04 243.586 263.929 233.619C264.946 234.724 242.534 260.916 240.751 263.198C240.215 263.741 239.849 264.429 239.699 265.177C239.707 266.072 240.014 266.938 240.573 267.638C259.686 297.217 294.667 316.74 330.184 314.351C376.326 311.248 412.199 272.238 420.454 228.11C420.722 226.683 420.953 225.239 421.167 223.813C427.479 179.364 396.723 135.307 355.341 120.402C346.444 117.195 337.103 115.39 327.652 115.053C306.213 114.314 285.225 121.32 268.529 134.79C252.305 147.966 239.307 164.583 226.488 180.969C214.916 192.54 205.984 207.017 196.178 220.033C185.48 234.065 174.96 248.257 161.82 260.042C154.688 266.39 146.612 272.131 137.269 273.914C128.533 275.572 119.44 273.593 111.309 270.027C99.6575 264.971 89.7054 256.672 82.6396 246.117C73.948 232.944 70.6127 216.95 73.3147 201.401C76.3992 183.679 89.3613 168.131 105.693 160.875C112.384 157.89 119.634 156.365 126.96 156.402C134.286 156.439 141.52 158.037 148.181 161.089C156.953 165.296 164.227 171.786 171.198 178.597C172.536 180.006 188.992 196.177 188.992 196.052Z" fill="url(#paint0_linear_667_4350)"/>
<defs>
<linearGradient id="paint0_linear_667_4350" x1="32.8954" y1="214.809" x2="422.023" y2="214.809" gradientUnits="userSpaceOnUse">
<stop stop-color="#D5ED48"/>
<stop offset="1" stop-color="#F4C15B"/>
</linearGradient>
</defs>
</svg>
